<svg width="371" height="120" viewBox="0 0 371 120" fill="none" xmlns="http://www.w3.org/2000/svg">
<path d="M29.0123 99.7051L28.9645 75.4008H48.8959L48.8289 57.431H65.9376C73.6499 57.431 79.0466 54.7517 82.3669 51.2783C80.3766 49.4699 77.5922 48.0537 74.0135 47.0107C66.7509 44.8961 58.2253 44.9056 53.1252 44.9056H29.0027L28.9453 22.7256H56.3977C73.248 22.7256 91.2466 27.7874 91.2466 42.0063C91.2466 45.3745 90.3184 48.5226 88.5674 51.2975C90.4141 54.2924 90.9882 57.4692 90.9882 60.2346C90.9882 66.2819 88.242 74.0995 75.1617 77.8791C67.5834 80.0703 58.8472 80.1851 53.6993 80.1851L53.7663 99.5807L29.0027 99.7051H29.0123ZM33.6339 80.1851L33.6818 94.9399L48.8193 94.8634L48.7236 80.1851H33.6339ZM53.6419 62.2153L53.6898 75.3912C58.5889 75.3912 66.8849 75.4582 73.8317 73.4584C82.1468 71.0567 86.1943 66.7317 86.1943 60.2346C86.1943 58.3974 85.8786 56.7324 85.2375 55.2397C84.3763 56.0244 83.4194 56.7612 82.386 57.4405C77.8122 60.4355 71.6692 62.2153 65.9471 62.2153H53.6515H53.6419ZM53.795 40.1022C59.2013 40.1022 67.7556 40.1883 75.3531 42.3987C79.6494 43.6521 82.8166 45.3745 85.1322 47.3361C86.0221 45.518 86.4623 43.6617 86.4623 41.9968C86.4623 37.0785 83.2281 33.2989 76.8362 30.7632C69.698 27.9309 60.9715 27.5003 56.4072 27.5003L33.6435 27.5577L33.6626 40.0161L53.1348 40.0926H53.8046L53.795 40.1022Z" fill="black"/>
<path d="M143.164 41.4127C141.107 40.5037 138.571 40.0444 135.538 40.0444H120.219V80.1943H126.371V65.009H135.739C138.638 65.009 141.107 64.4731 143.136 63.4014C145.164 62.3297 146.705 60.8466 147.757 58.952C148.81 57.0574 149.326 54.9045 149.326 52.4932C149.326 49.7279 148.81 47.4218 147.786 45.5655C146.762 43.7188 145.222 42.3313 143.164 41.4127ZM140.992 57.8134C139.633 58.952 137.653 59.5166 135.069 59.5166H126.371V45.4603H135.002C136.878 45.4603 138.399 45.7091 139.586 46.1971C140.772 46.6851 141.633 47.4505 142.198 48.4744C142.753 49.4982 143.03 50.857 143.03 52.5602C143.03 54.9236 142.351 56.6747 140.992 57.8134Z" fill="black"/>
<path d="M175.471 50.0821C173.088 48.7903 170.332 48.1396 167.203 48.1396C164.074 48.1396 161.328 48.7903 158.936 50.0821C156.554 51.3738 154.678 53.2397 153.319 55.6701C151.961 58.1006 151.281 61.0381 151.281 64.4733C151.281 67.9084 151.913 70.7981 153.185 73.2764C154.458 75.7547 156.286 77.6588 158.668 78.9984C161.051 80.338 163.902 81.0078 167.203 81.0078C172.15 81.0078 176.026 79.5247 178.81 76.5584C181.595 73.5922 182.992 69.5638 182.992 64.4828C182.992 61.0477 182.331 58.1197 181.02 55.6797C179.7 53.2493 177.853 51.3834 175.471 50.0916V50.0821ZM174.571 72.5301C172.83 74.6064 170.351 75.6398 167.146 75.6398C165.003 75.6398 163.185 75.1614 161.692 74.2046C160.199 73.2477 159.061 71.9272 158.276 70.2527C157.491 68.5782 157.109 66.6262 157.109 64.3967C157.109 61.0477 157.998 58.3972 159.788 56.4356C161.568 54.4741 164.046 53.4885 167.213 53.4885C169.261 53.4885 171.04 53.9191 172.533 54.7898C174.026 55.6606 175.174 56.9236 175.978 58.5694C176.782 60.2152 177.183 62.1577 177.183 64.3872C177.183 67.7362 176.313 70.4441 174.571 72.5205V72.5301Z" fill="black"/>
<path d="M202.901 75.1422C202.165 75.257 201.37 75.3144 200.528 75.3144C198.835 75.3144 197.61 74.8838 196.844 74.0131C196.089 73.1423 195.706 71.841 195.706 70.0995V53.9764H205.676V48.9624H195.706V40.3315H189.955V48.9624H185.209V53.9764H189.955V70.9033C189.955 72.817 190.28 74.5393 190.921 76.0512C191.572 77.5726 192.596 78.7687 194.003 79.6681C195.409 80.558 197.179 81.0077 199.323 81.0077C200.299 81.0077 201.16 80.9599 201.897 80.8738C202.633 80.7876 203.332 80.6633 204.002 80.5102C204.672 80.3571 205.36 80.1657 206.078 79.9456L205.341 74.5968C204.451 74.8647 203.638 75.056 202.901 75.1613V75.1422Z" fill="black"/>
<path d="M267.242 49.7759C265.634 48.6851 263.491 48.1396 260.821 48.1396C258.774 48.1396 256.917 48.5702 255.271 49.441C253.616 50.3117 252.296 51.6705 251.291 53.5268C250.698 54.6272 250.277 55.9189 249.98 57.3734H249.846V48.9434H244.028V80.1945H249.846V61.5931C249.846 59.8516 250.191 58.3972 250.879 57.2107C251.568 56.0338 252.564 55.1056 253.855 54.4358C255.147 53.766 256.668 53.4311 258.41 53.4311C260.285 53.4311 261.778 53.8234 262.898 54.5985C264.008 55.3831 264.792 56.3782 265.242 57.6126C265.692 58.8374 265.912 60.1674 265.912 61.5931V80.1945H271.729V60.1865C271.729 57.957 271.385 55.9381 270.696 54.1296C270.007 52.3211 268.859 50.8763 267.251 49.7759H267.242Z" fill="black"/>
<path d="M293.173 75.1422C292.436 75.257 291.642 75.3144 290.8 75.3144C289.106 75.3144 287.881 74.8838 287.116 74.0131C286.36 73.1423 285.977 71.841 285.977 70.0995V53.9764H295.948V48.9624H285.977V40.3315H280.226V48.9624H275.48V53.9764H280.226V70.9033C280.226 72.817 280.552 74.5393 281.193 76.0512C281.844 77.5726 282.867 78.7687 284.274 79.6681C285.681 80.558 287.451 81.0077 289.594 81.0077C290.57 81.0077 291.431 80.9599 292.168 80.8738C292.905 80.7876 293.603 80.6633 294.273 80.5102C294.943 80.3571 295.632 80.1657 296.35 79.9456L295.613 74.5968C294.723 74.8647 293.91 75.056 293.173 75.1613V75.1422Z" fill="black"/>
<path d="M307.515 48.9434H301.697V80.1945H307.515V48.9434Z" fill="black"/>
<path d="M307.554 40.207H301.688V45.0775H307.554V40.207Z" fill="black"/>
<path d="M339.876 53.9286C339.005 52.0818 337.656 50.6657 335.828 49.6801C334.001 48.6945 331.637 48.2065 328.738 48.2065C325.839 48.2065 323.657 48.6658 321.782 49.5749C319.906 50.4934 318.423 51.7852 317.332 53.4597C316.241 55.1342 315.533 57.1723 315.227 59.5836L320.71 60.4544C321.16 57.8708 322.011 56.0145 323.284 54.9046C324.557 53.7946 326.308 53.2301 328.537 53.2301C331.082 53.2301 332.853 53.8903 333.857 55.2012C334.862 56.5217 335.36 58.4067 335.36 60.8562V62.4638H325.255C321.466 62.4638 318.672 63.3632 316.892 65.1717C315.103 66.9802 314.213 69.2671 314.213 72.0324C314.213 74.0418 314.624 75.678 315.447 76.9507C316.27 78.2233 317.428 79.1897 318.93 79.8595C320.423 80.5293 322.174 80.8642 324.183 80.8642C326.461 80.8642 328.451 80.3858 330.173 79.4289C331.886 78.4721 333.254 77.0176 334.259 75.0752C334.699 74.2236 335.034 73.2667 335.293 72.2333H335.369V80.1944H341.187V60.7223C341.187 58.0431 340.756 55.7849 339.885 53.9286H339.876ZM331.044 75.0369C329.637 75.6589 327.953 75.9747 325.992 75.9747C324.518 75.9747 323.341 75.7642 322.442 75.3431C321.552 74.9221 320.901 74.3289 320.499 73.5729C320.098 72.817 319.897 72.0611 319.897 71.2956C319.897 69.8699 320.432 68.7982 321.504 68.0806C322.576 67.3629 324.088 67.0089 326.059 67.0089H335.36V68.5494C335.36 70.023 334.996 71.3147 334.259 72.4343C333.522 73.5538 332.451 74.415 331.044 75.0465V75.0369Z" fill="black"/>
<path d="M231.741 72.597C231.052 73.6017 230.123 74.3864 228.966 74.9413C227.808 75.4963 226.286 75.7738 224.411 75.7738C221.11 75.7738 218.574 74.8169 216.814 72.8937C215.359 71.3148 214.517 69.1428 214.259 66.4061H238.458C238.544 65.6885 238.592 65.0283 238.592 64.3967V62.6552C238.592 59.8038 238.046 57.2777 236.955 55.096C235.865 52.9144 234.248 51.2016 232.104 49.9768C229.961 48.752 227.358 48.1396 224.277 48.1396C221.196 48.1396 218.335 48.7999 215.943 50.1108C213.56 51.4312 211.704 53.3258 210.393 55.7945C209.073 58.2728 208.422 61.2678 208.422 64.7986C208.422 68.3294 209.073 71.1043 210.364 73.5347C211.656 75.9652 213.512 77.8024 215.914 79.0558C218.325 80.2998 221.139 80.9313 224.344 80.9313C227.023 80.9313 229.31 80.5198 231.205 79.6969C233.099 78.874 234.64 77.6971 235.817 76.1853C236.649 75.1136 237.319 73.8984 237.836 72.5588L232.65 71.0469C232.391 71.5828 232.085 72.109 231.741 72.6066V72.597ZM216.823 56.005C218.584 54.1105 221.005 53.1632 224.086 53.1632C227.167 53.1632 229.588 54.0818 231.08 55.9094C232.296 57.3925 232.975 59.3828 233.147 61.861H214.364C214.699 59.3732 215.522 57.4212 216.833 56.005H216.823Z" fill="black"/>
</svg>
