<svg width="87" height="47" viewBox="0 0 87 47" fill="none" xmlns="http://www.w3.org/2000/svg">
<path d="M30.799 3.70592C30.6319 4.15261 29.8635 4.53099 28.4939 4.84104C27.1586 5.16396 25.4068 5.44851 23.2385 5.69467C21.0702 5.94084 18.6872 6.185 16.0894 6.42715C13.526 6.68216 10.9326 6.9651 8.30916 7.27597C9.67596 9.27611 11.0749 11.1903 12.506 13.0187C13.9371 14.847 15.235 16.508 16.3996 18.0015C17.5987 19.508 18.5098 20.7891 19.1332 21.8451C19.8037 22.8795 20.0554 23.6201 19.8882 24.0668C19.6439 24.7196 19.1654 25.2653 18.4529 25.7037C17.7532 26.1078 16.8708 26.1105 15.8056 25.7119C15.4964 25.5961 14.9379 25.1521 14.1301 24.3797C13.3352 23.5729 12.3855 22.5515 11.2812 21.3156C10.1896 20.0452 9.01002 18.644 7.74228 17.1118C6.50891 15.5925 5.27764 14.0153 4.04849 12.3801C2.86655 10.7233 1.78127 9.12234 0.792637 7.57713C0.341323 6.89896 0.0789929 6.29153 0.00564627 5.75482C-0.0204802 5.19661 0.0436157 4.71134 0.197934 4.29902C0.416551 3.71488 0.776932 3.22298 1.27908 2.82331C1.82844 2.40214 2.58186 2.1161 3.53933 1.96518C5.48 1.59464 7.51732 1.27985 9.65129 1.02083C11.8325 0.7403 13.9708 0.522065 16.0662 0.366122C18.2088 0.188678 20.1861 0.0864856 21.9982 0.0595462C23.8231 -0.00175338 25.3561 -0.0156292 26.5971 0.0179173C27.8724 0.0643261 28.7163 0.164689 29.1286 0.319007C30.0907 0.679083 30.6836 1.13601 30.9072 1.6898C31.1437 2.20923 31.1077 2.88127 30.799 3.70592Z" fill="black"/>
<path d="M18.7701 46.1535C18.0142 45.8706 17.5586 45.3084 17.4035 44.4669C17.2355 43.6597 17.3058 42.8438 17.6145 42.0191C17.8074 41.5037 18.4487 40.6273 19.5386 39.3899C20.6157 38.1869 22.0038 36.7282 23.7032 35.0137C25.4497 33.2778 27.4044 31.4043 29.5673 29.3933C31.7431 27.348 34.0369 25.2488 36.4487 23.0959C38.8735 20.9087 41.2917 18.7386 43.7036 16.5858C46.1498 14.4458 48.4931 12.4239 50.7333 10.5202C52.9736 8.61646 55.0143 6.93187 56.8555 5.46641C57.5594 4.94637 58.317 4.54439 59.1284 4.26046C59.9741 3.98939 60.7922 4.00174 61.5825 4.29751C62.3728 4.59329 62.8863 5.15762 63.123 5.99052C63.4069 6.80191 63.3881 7.63711 63.0666 8.49612C62.9509 8.80537 62.303 9.54222 61.1229 10.7067C59.9556 11.8368 58.3871 13.3063 56.4173 15.1154C54.4604 16.8901 52.1923 18.9205 49.613 21.2066C47.0682 23.5056 44.3259 25.9657 41.3862 28.587C38.4937 31.1867 35.5175 33.8531 32.4576 36.5861C29.4321 39.332 26.4473 42.0735 23.5034 44.8107C22.8769 45.4381 22.1407 45.8873 21.295 46.1583C20.4364 46.4638 19.5947 46.4622 18.7701 46.1535Z" fill="black"/>
<path d="M83.7902 38.6398C81.7765 39.1006 79.6255 39.5099 77.337 39.8678C75.0957 40.2042 72.8566 40.4826 70.6195 40.7031C68.3825 40.9235 66.315 41.1095 64.4171 41.261C62.5321 41.3782 60.9455 41.4308 59.6573 41.4187C58.3691 41.4067 57.5532 41.3363 57.2096 41.2077C56.488 40.9377 55.9359 40.4764 55.5533 39.824C55.1707 39.1715 55.1016 38.5189 55.3459 37.866C55.5517 37.3163 56.3587 36.8348 57.7668 36.4217C59.2094 36.0214 61.0341 35.6466 63.241 35.2974C65.4479 34.9481 67.8695 34.6009 70.5058 34.2556C73.1765 33.9233 75.8429 33.5501 78.5049 33.1362C77.121 31.2863 75.7286 29.5116 74.3277 27.8121C72.9611 26.1254 71.6933 24.5933 70.5245 23.2157C69.4028 21.8165 68.5282 20.647 67.9007 19.707C67.286 18.7326 67.0494 18.0565 67.1908 17.6785C67.4866 16.8882 67.9715 16.3254 68.6454 15.99C69.3194 15.6546 70.1546 15.6734 71.151 16.0463C71.4259 16.1492 71.9565 16.5633 72.7428 17.2884C73.5291 18.0136 74.4701 18.9534 75.5658 20.1078C76.6615 21.2622 77.8218 22.5582 79.0465 23.9959C80.3184 25.4121 81.5539 26.8735 82.7529 28.3799C83.9863 29.8992 85.0994 31.3735 86.0923 32.8027C86.5994 33.541 86.8769 34.2128 86.9245 34.8183C87.0193 35.4022 86.9832 35.9175 86.816 36.3642C86.6231 36.8796 86.2756 37.3371 85.7734 37.7368C85.3185 38.115 84.6574 38.416 83.7902 38.6398Z" fill="black"/>
</svg>
