<svg width="168" height="40" viewBox="0 0 168 40" fill="none" xmlns="http://www.w3.org/2000/svg">
<path d="M0 23.8165V10.0657C0 9.57169 0.336585 9.24233 0.840738 9.24233H8.02167C8.52582 9.24233 8.86385 9.57169 8.86385 10.0657V23.7068C8.86385 28.3713 11.1073 31.061 15.2026 31.061C19.2979 31.061 21.5413 28.3727 21.5413 23.7068V1.2611C21.5413 0.767063 21.8779 0.437703 22.3821 0.437703H29.563C30.0672 0.437703 30.4052 0.767063 30.4052 1.2611V23.8165C30.4052 34.2434 24.0664 39.5666 15.2026 39.5666C6.33875 39.5666 0 34.2434 0 23.8165Z" fill="url(#paint0_linear_433_1022)"/>
<path d="M33.6035 19.8108C33.6035 8.67028 42.6912 0 53.7985 0C64.9057 0 74.0498 8.67173 74.0498 19.8108C74.0498 30.9498 64.9621 39.5681 53.7985 39.5681C42.6349 39.5681 33.6035 30.8964 33.6035 19.8108ZM53.7985 31.061C60.1936 31.061 65.0184 26.177 65.0184 19.8108C65.0184 13.4446 60.1936 8.5056 53.7985 8.5056C47.4034 8.5056 42.5785 13.3348 42.5785 19.8108C42.5785 26.2868 47.4583 31.061 53.7985 31.061Z" fill="url(#paint1_linear_433_1022)"/>
<path d="M103.6 19.8108C103.6 8.5056 112.744 0 123.851 0C129.517 0 134.229 2.19574 137.707 5.70748C138.1 6.09173 137.988 6.47598 137.707 6.80535L133.219 11.4698C132.883 11.8541 132.435 11.8541 132.042 11.5796C129.855 9.7147 127.161 8.50704 123.908 8.50704C117.456 8.50704 112.576 13.2813 112.576 19.8122C112.576 26.3431 117.458 31.0625 123.908 31.0625C127.161 31.0625 129.855 29.8548 132.042 27.9899C132.435 27.7154 132.883 27.7154 133.219 28.0997L137.707 32.7642C137.988 33.0935 138.1 33.4778 137.707 33.862C134.229 37.3738 129.517 39.5695 123.851 39.5695C112.744 39.5695 103.6 31.1174 103.6 19.8122V19.8108Z" fill="url(#paint2_linear_433_1022)"/>
<path d="M105.553 37.8577L90.4196 2.35609L89.8476 1.04731C89.7132 0.741062 89.4113 0.543158 89.0791 0.543158H89.0776C88.7454 0.543158 88.4435 0.739617 88.3077 1.04442L87.727 2.36042L72.6009 37.8433C72.4218 38.2275 72.4363 38.632 72.6414 38.9541C72.8725 39.3182 73.316 39.5262 73.8592 39.5262H80.4724C81.3868 39.5262 81.7783 39.0148 81.9502 38.5771L85.6786 28.6327L89.0444 19.4886L96.2022 38.5872C96.3698 39.0163 96.7613 39.5276 97.6771 39.5276H104.341C105.057 39.5276 105.385 39.1809 105.517 38.9744C105.72 38.6551 105.733 38.2477 105.554 37.8563L105.553 37.8577Z" fill="url(#paint3_linear_433_1022)"/>
<path d="M141.18 33.8909C140.906 33.5601 140.906 33.121 141.29 32.6804L144.977 28.4998C145.307 28.1141 145.746 27.9494 146.242 28.3351C148.773 30.8111 150.863 32.0217 153.78 32.0217C156.696 32.0217 158.566 30.9209 158.566 28.5013C158.566 26.2449 156.916 25.5298 154.493 24.4305L149.817 22.2304C145.745 20.4146 141.894 17.498 141.894 11.5016C141.894 4.29469 147.34 0.388588 154.053 0.388588C158.619 0.388588 162.415 2.20441 165.606 5.50524C165.937 5.83604 165.992 6.33008 165.661 6.77068L162.03 11.1174C161.754 11.5031 161.26 11.6678 160.874 11.3918C158.398 9.30155 156.582 8.36548 154.327 8.36548C151.796 8.36548 150.311 9.63091 150.311 11.6114C150.311 13.7017 151.851 14.3619 154.658 15.6822L158.564 17.4431C162.635 19.3687 167.036 21.8996 167.036 28.5013C167.036 36.533 160.435 40 153.941 40C147.834 40 143.489 36.9736 141.177 33.8938L141.18 33.8909Z" fill="url(#paint4_linear_433_1022)"/>
<defs>
<linearGradient id="paint0_linear_433_1022" x1="0" y1="20" x2="167.036" y2="20" gradientUnits="userSpaceOnUse">
<stop stop-color="#8242F4"/>
<stop offset="0.461538" stop-color="#F8516A"/>
<stop offset="1" stop-color="#FF8868"/>
</linearGradient>
<linearGradient id="paint1_linear_433_1022" x1="0" y1="20" x2="167.036" y2="20" gradientUnits="userSpaceOnUse">
<stop stop-color="#8242F4"/>
<stop offset="0.461538" stop-color="#F8516A"/>
<stop offset="1" stop-color="#FF8868"/>
</linearGradient>
<linearGradient id="paint2_linear_433_1022" x1="0" y1="20" x2="167.036" y2="20" gradientUnits="userSpaceOnUse">
<stop stop-color="#8242F4"/>
<stop offset="0.461538" stop-color="#F8516A"/>
<stop offset="1" stop-color="#FF8868"/>
</linearGradient>
<linearGradient id="paint3_linear_433_1022" x1="0" y1="20" x2="167.036" y2="20" gradientUnits="userSpaceOnUse">
<stop stop-color="#8242F4"/>
<stop offset="0.461538" stop-color="#F8516A"/>
<stop offset="1" stop-color="#FF8868"/>
</linearGradient>
<linearGradient id="paint4_linear_433_1022" x1="0" y1="20" x2="167.036" y2="20" gradientUnits="userSpaceOnUse">
<stop stop-color="#8242F4"/>
<stop offset="0.461538" stop-color="#F8516A"/>
<stop offset="1" stop-color="#FF8868"/>
</linearGradient>
</defs>
</svg>
